<svg id="Layer_1" data-name="Layer 1" xmlns="http://www.w3.org/2000/svg" viewBox="0 0 283.46 283.47"><defs><style>.cls-1{fill:#d45ca2;}.cls-2{fill:#fff;}</style></defs><title>facebookicon</title><path id="Colour" class="cls-1" d="M15.64,0H267.82a15.65,15.65,0,0,1,15.65,15.65V267.82a15.65,15.65,0,0,1-15.65,15.65H15.65A15.65,15.65,0,0,1,0,267.82V15.64A15.64,15.64,0,0,1,15.64,0Z"/><path id="F" class="cls-2" d="M195.59,283.47V173.69h36.85l5.52-42.78H195.59V103.6c0-12.39,3.44-20.83,21.2-20.83h22.65V44.5a303.15,303.15,0,0,0-33-1.69c-32.66,0-55,19.94-55,56.55v31.55H114.47v42.78h36.94V283.47Z"/></svg>