<svg id="Layer_1" data-name="Layer 1" xmlns="http://www.w3.org/2000/svg" viewBox="0 0 283.46 283.46"><defs><style>.cls-1{fill:#d34197;}</style></defs><title>instagramicon</title><path class="cls-1" d="M141.73,0C103.24,0,98.41.16,83.3.85S57.91,3.94,48.89,7.44a69.48,69.48,0,0,0-25.1,16.35A69.48,69.48,0,0,0,7.44,48.89c-3.5,9-5.9,19.32-6.59,34.4S0,103.24,0,141.73s.16,43.32.85,58.44,3.08,25.39,6.59,34.4a69.48,69.48,0,0,0,16.35,25.1A69.48,69.48,0,0,0,48.89,276c9,3.5,19.32,5.9,34.4,6.59s19.94.85,58.44.85,43.32-.16,58.44-.85,25.39-3.08,34.4-6.59A72.47,72.47,0,0,0,276,234.57c3.5-9,5.9-19.32,6.59-34.4s.85-19.94.85-58.44-.16-43.32-.85-58.44-3.08-25.39-6.59-34.4a69.48,69.48,0,0,0-16.35-25.1,69.48,69.48,0,0,0-25.1-16.35c-9-3.5-19.32-5.9-34.4-6.59S180.22,0,141.73,0Zm0,25.54c37.84,0,42.33.14,57.27.83,13.82.63,21.32,2.94,26.32,4.88a43.91,43.91,0,0,1,16.3,10.6,43.91,43.91,0,0,1,10.6,16.3c1.94,5,4.25,12.5,4.88,26.32.68,14.95.83,19.43.83,57.27s-.14,42.33-.83,57.27c-.63,13.82-2.94,21.32-4.88,26.32a46.94,46.94,0,0,1-26.9,26.9c-5,1.94-12.5,4.25-26.32,4.88-14.94.68-19.43.83-57.27.83s-42.33-.14-57.27-.83c-13.82-.63-21.32-2.94-26.32-4.88a43.91,43.91,0,0,1-16.3-10.6,43.91,43.91,0,0,1-10.6-16.3c-1.94-5-4.25-12.5-4.88-26.32-.68-14.95-.83-19.43-.83-57.27s.14-42.33.83-57.27C27,70.64,29.3,63.14,31.24,58.14a43.91,43.91,0,0,1,10.6-16.3,43.91,43.91,0,0,1,16.3-10.6c5-1.94,12.5-4.25,26.32-4.88,14.95-.68,19.43-.83,57.27-.83"/><path class="cls-1" d="M141.73,189A47.24,47.24,0,1,1,189,141.73,47.24,47.24,0,0,1,141.73,189Zm0-120a72.78,72.78,0,1,0,72.78,72.78A72.78,72.78,0,0,0,141.73,69Z"/><path class="cls-1" d="M234.4,66.08a17,17,0,1,1-17-17,17,17,0,0,1,17,17Z"/></svg>