<svg id="Layer_1" data-name="Layer 1" xmlns="http://www.w3.org/2000/svg" viewBox="0 0 516.26 476.24"><defs><style>.cls-1{fill:#fff;}</style></defs><title>logoweb</title><path class="cls-1" d="M451.16,78c-13,22.28-5.57,57.55-35.28,66.84,3.71,0,9.28,0,13,1.86,5.57-1.86,14.85,0,20.43,1.86,20.42,5.57,26,13,46.41,18.57,7,1.17,14,3.8,20.54,4.21V162A31.66,31.66,0,0,0,505,159.67c4-2,8.5-4,11.25-6.54v-9.21c-8.48-3.75-15.44,2.76-22.4,2.76,3.71-5.57,16.71-16.71,7.43-24.14-9.28-3.71-16.71,0-26,7.43,3.71-7.43,13-14.85,5.57-22.28-7.42-5.57-16.71,0-18.56,0-1.86-3.71-5.57-13-9.28-16.71a10.21,10.21,0,0,1,9.28,5.57c17.9-13.42,34.6-24.44,54-33.08v-20C491.67,47.29,465,53.79,451.16,78Z"/><path class="cls-1" d="M334.19,59.41c7.43-14.85,18.57-13,29.71-14.85-7.43-3.71-18.57-1.86-26,3.71C334.19,50.13,330.48,57.56,334.19,59.41Z"/><path class="cls-1" d="M486.44,102.11c1.86,1.86,7.42,9.28,5.57,11.14,8.69-3.44,16.74-6.56,24.25-9.42v-30c-13.76,6.71-28.48,15-46.53,24.58C473.44,98.4,484.58,100.26,486.44,102.11Z"/><path class="cls-1" d="M337.91,61.27c13,3.72,27.85,1.86,40.84,3.72,7.43,1.86,13,9.28,20.43,5.57,5.57-5.57,5.57-7.43,5.57-11.14-1.86-1.86-5.57-9.28-16.71-13s-22.28,0-29.71,1.86S341.62,55.7,337.91,61.27Z"/><path class="cls-1" d="M410.32,70.55c1.86-1.86,1.86-3.71,1.86-5.57s-1.86-1.86-3.71-1.86a10.21,10.21,0,0,0-5.57,9.28C408.46,74.26,408.46,70.55,410.32,70.55Z"/><path class="cls-1" d="M510.57,137.39c1.92-.3,3.81-.61,5.68-.92V112.69l-7.54,2.42C518,120.68,516.14,128.11,510.57,137.39Z"/><path class="cls-1" d="M382.46,79.84c5.57,1.86,11.14,1.86,13,5.57,0,1.86,0,5.57-1.86,5.57-3.71,1.86-7.43,0-9.28-3.72H388c-5.57-3.71-11.14-3.71-16.71-3.71-3.71,0-18.56-1.86-20.42,0,0,9.28,20.42,9.28,31.56,9.28,1.86,3.71,5.57,7.42,7.43,9.28s3.71,3.71,1.86,7.43c1.86-1.86,3.71-5.57,7.43-7.43s5.57-7.43,3.71-11.14c-3.71-7.43-14.85-18.57-20.42-20.42C367.61,68.7,349,68.7,336,65c-1.86,0-3.71,0-3.71,1.86,3.71,1.86,11.14,11.14,14.85,13Z"/><path class="cls-1" d="M402.89,81.69s3.71,1.86,5.57,1.86c3.71,3.71,7.43,1.86,9.28,0,3.71-1.86,5.57-3.71,5.57-7.43-1.86-1.86-1.86-1.86-1.86-3.71s-3.71-1.86-5.57-1.86C410.32,72.41,402.89,76.12,402.89,81.69Z"/><path class="cls-1" d="M13,31.56c6.9,15,18.09,39.91,40.64,58.48A62.52,62.52,0,0,1,66.11,61.39,258.81,258.81,0,0,1,13,31.56Z"/><path class="cls-1" d="M415.88,89.12a14.19,14.19,0,0,1-9.28-3.71c-3.71,1.86,0,3.71,0,7.43a4,4,0,0,0,3.71,3.71c3.71-1.86,11.14-3.71,9.28-9.28C417.74,87.26,415.88,89.12,415.88,89.12Z"/><path class="cls-1" d="M453,157.81c-9.28-3.71-20.42-7.43-29.7-5.57-20.43,14.85-11.14,40.84-7.43,59.41,0,1.86,0,3.71,1.86,3.71,5.57-5.57,5.57-14.86,7.43-22.28-1.86-1.86-5.57,0-9.28,0,1.86-1.86,5.57-3.71,9.28-5.57,24.14,0,46.41,5.57,68.69,9.28,7.17,2.69,14.78,3.2,22.4,2.61v-22.1c-1.31.31-2.6.61-3.83.92C492,170.81,469.72,169,453,157.81Z"/><path class="cls-1" d="M221.15,178.36H208.7c2.17,1.13,4.38,2.32,6.67,3.59C218.52,184,219.89,181.4,221.15,178.36Z"/><path class="cls-1" d="M323.05,191.23c0-11.14,9.28-18.57,7.43-27.85l-1.86-3.71c-14.85-1.86-27.85,9.28-37.13,20.42-14.85,5.57-27.85,14.85-40.84,24.14,1.86,0,5.57,1.86,3.71,3.71-20.42-5.57-37.13-20.42-55.7-26-2.33-1.56-4-2.71-5.38-3.59H143.41a5.56,5.56,0,0,0,2.42,1.74c11,5.82,25.21,5.07,30.89,6.23a10.93,10.93,0,0,1,5.23,3c13,13,27.85,20.42,42.7,27.85,13,9.28,18.56,20.42,31.56,9.28l48.27-27.85Z"/><path class="cls-1" d="M458.59,198.66c-11.14,0-26-3.71-31.56,7.43-1.86,13-3.71,27.85-16.71,33.42,0,0-11.14,5.57-1.86,9.28,7.43,5.57,14.85,5.57,20.42,13,0,3.71-3.71,3.71-5.57,5.57,9.28,5.57,14.85,16.71,20.42,24.14,5.57-1.86,11.14-22.28,13-20.42-1.86,5.57,16.71,11.14,20.43,16.71,5.57-7.43,3.71-22.28,1.86-31.56,7.43,7.43,11.14,14.85,18.57,20.42,9.28-9.28,1.86-22.28,0-31.57,4.15,2.77,12.43,3.48,18.68,6V232.36c-.68-1.41-1.35-2.76-2-4l2,.88V206.67A51.6,51.6,0,0,1,505,207.94C490.15,204.23,473.44,200.51,458.59,198.66Z"/><path class="cls-1" d="M326.77,248.79c-3.71-3.71-7.43-5.57-11.14-9.28-9.28-5.57-13-14.85-9.28-24.14,1.86-3.71,5.57-5.57,5.57-9.28H308.2c-13,5.57-33.42,16.71-46.41,24.14,1.86,1.86,14.85,0,16.71,3.71-3.71,3.71-9.28,7.43-7.43,14.85,3.72-1.86,16.71-1.86,16.71-1.86,0,3.71-5.57,13-3.72,16.71,3.72,0,11.14-3.72,14.85-7.43,0,7.43,1.86,16.71,5.57,22.28C306.34,274.78,313.77,258.07,326.77,248.79Z"/><path class="cls-1" d="M367.61,248.79c-13,0-27.85-1.86-39,3.71h1.86l-3.71,1.86c-3.71,3.71-1.86,3.71-5.57,7.43,0,1.86-9.28,13-7.42,14.86-1.86,3.71-3.71,7.42-3.71,9.28,3.71,5.57,7.43,3.72,11.14,5.57-3.71-3.71-3.71-5.57-3.71-7.43-1.86-5.57,7.43-18.56,11.14-24.14,1.86-1.86,3.71-3.71,5.57-3.71H336c-5.57,7.43-9.28,14.85-13,22.28,0,3.71,0,5.57,1.86,9.28,1.86,1.86,11.14,1.86,14.85,1.86-1.86-7.43,3.71-11.14,0-20.43,1.86,0,3.71,0,5.57,1.86,1.86,9.28-3.71,14.85,3.71,22.28,9.28,3.71,13-3.71,20.42-7.43,1.86-11.14,0-22.28-1.86-31.56,5.57,1.86,7.43,18.56,11.14,22.28,3.71,1.86,5.57,0,7.43-1.86,7.43-7.43,0-16.71-5.57-24.14,1.86,0,7.43,0,11.14,9.28,5.57,11.14,0,9.28,3.71,14.86,1.86-1.86,11.14-1.86,13-1.86,9.28-7.42,5.57-9.28,11.14-11.14a145.35,145.35,0,0,0-26-9.28C388,248.79,373.18,246.93,367.61,248.79Z"/><path class="cls-1" d="M311.91,473.44c-1.86-1.86-1.86-7.43-5.57-9.28a1.82,1.82,0,0,1-1.86,1.86c.55,3.3.89,6.73,1.13,10.23h7.9A29.09,29.09,0,0,1,311.91,473.44Z"/><path class="cls-1" d="M315.63,438.16,300.78,414c-5.57,1.86,1.86,14.85,3.71,20.42l14.85,37.13,2.33,4.66H342.1l-.48-.94Z"/><path class="cls-1" d="M516.26,413.46V400.17c-9-5.31-16-9.22-18.68-10.28C504.83,399.56,512.08,408.44,516.26,413.46Z"/><path class="cls-1" d="M479,384.32c-5.57-7.43-14.85-18.57-16.71-16.71-1.86,3.71,5.57,9.28,7.42,11.14,0,0,27.85,37.13,22.28,37.13-3.71,0-18.56-14.85-27.85-29.71-11.14-16.71-29.7-44.56-33.42-65,0,0,31.57,40.85,39,44.56,0,0-22.28-35.27-26-46.42s-16.71-40.84-26-50.13c0,0,1.86,3.71-9.28,9.28-9.28,3.71-11.14-1.86-22.28,1.86-9.28,3.71-7.43,5.57-13,11.14-7.43,5.57-22.28,16.71-31.56,1.86,0,0-13,9.28-24.14,3.71,0,0-20.42,65-16.71,79.84,0,0,7.42-7.43,14.85-3.71,5.57,3.71,11.14-7.43,20.42-3.71,7.43,3.71-3.71,24.14,0,26,3.71,3.71,7.43-5.57,14.85-1.86s1.86,14.85,9.28,14.85c5.57,0-1.86-33.42,7.43-33.42,0,0,0,22.28,9.28,27.85,0,0-11.14-50.13,5.57-91,0,0-3.71,59.41,1.86,83.55,0,0,9.28-22.28,22.28-13,11.14,7.43,0,24.14,5.57,26,7.43,1.86,18.56-9.28,22.28-13,5.57-3.71,11.14-5.57,14.85,0,5.57,13-7.43,9.28-5.57,16.71,3.72,7.43,9.28,3.71,16.71,7.43,11.14,5.57-18.57,11.14-5.57,18.57,9.28,7.42,29.71,9.28,46.42,7.42,0,0,6.68,2.75,15,6.44V415.3C509.82,411.61,496.78,405.05,479,384.32Z"/><path class="cls-1" d="M183.81,200.51c-1.86,7.43,3.71,16.71,11.14,20.43v-7.43C194.95,207.94,189.38,202.37,183.81,200.51Z"/><path class="cls-1" d="M180.09,215.37c0,1.86-1.86,5.57-1.86,7.43,0,5.57,7.43,7.43,9.28,13C193.09,230.22,187.52,217.22,180.09,215.37Z"/><path class="cls-1" d="M174.52,228.37l-1.86,5.57c-5.57,7.43,3.71,14.85,3.71,18.57,1.86-1.86,5.57-11.14,3.71-16.71C180.09,233.94,178.24,230.22,174.52,228.37Z"/><path class="cls-1" d="M139.25,235.79c1.86,1.86,11.14,1.86,14.85,1.86,5.57,0,9.28-5.57,13-9.28L156,230.22C152.24,230.22,144.82,235.79,139.25,235.79Z"/><path class="cls-1" d="M150.39,267.35c7.43-1.86,9.28-1.86,13-9.28,3.71-3.71,3.71-11.14,1.86-14.85C154.1,245.07,159.67,259.93,150.39,267.35Z"/><path class="cls-1" d="M87.26,204.23c-3.71,1.86-9.28,7.43-9.28,11.14-3.71,9.28-1.86,11.14,3.71,16.71C79.84,219.08,92.83,215.37,87.26,204.23Z"/><path class="cls-1" d="M141.11,250.64c1.86,0,11.14-3.71,11.14-5.57-18.57-5.57-13,1.86-27.85,5.57C124.4,252.5,135.53,252.5,141.11,250.64Z"/><path class="cls-1" d="M163.38,220.94c3.71-1.86,11.14-5.57,11.14-9.28-20.42-1.86-11.14,5.57-26,11.14C148.53,226.51,159.67,222.79,163.38,220.94Z"/><path class="cls-1" d="M83.55,194.95c-1.86-1.86-9.28,1.86-13,3.71s-13,9.28-11.14,13C74.27,202.37,74.27,211.65,83.55,194.95Z"/><path class="cls-1" d="M130,180.09l-.58-1.73h-6a7.09,7.09,0,0,0-.85,3.59c-1.86,5.57,1.86,14.85,3.71,18.56C126.25,193.09,133.68,189.38,130,180.09Z"/><path class="cls-1" d="M126.25,271.07c3.71,0,14.85-1.86,18.57-5.57a14.2,14.2,0,0,0,3.71-9.28l-7.43,1.86C131.82,258.07,131.82,267.35,126.25,271.07Z"/><path class="cls-1" d="M91.72,178.36H87c-9,3.63-9,5.53-10.83,12.87,7.42-9.28,20.42,0,24.13-9.28C99,179.44,95.2,178.63,91.72,178.36Z"/><path class="cls-1" d="M105.83,196.8c0,7.43,3.71,9.28,7.43,13L111.4,182C107.68,185.66,105.83,191.23,105.83,196.8Z"/><path class="cls-1" d="M328.62,91c0,7.42-3.71,13-3.71,18.56l5.57,1.86c1.86,1.86,0,3.72,0,5.57a5.75,5.75,0,0,0,3.71,1.86H336a1.82,1.82,0,0,1-1.86,1.86h-1.86c0,1.86,0,3.71,3.71,3.71,1.86,1.86-1.86,7.43,1.86,9.28,13,0,20.42-9.28,29.71-16.71-1.86,5.57-9.28,9.28-11.14,14.85s0,13-3.71,18.56c-1.86,7.43-13,3.71-14.85,11.14,0,7.43-3.71,16.71,3.71,22.28,11.14,0,20.42-1.86,29.7-7.43,14.85-5.57,26-20.42,39-29.71-3.71,0-5.57,0-7.43-1.86-16.71-5.57-11.14-24.14-13-37.13,0-1.86-3.71-3.71-5.57-1.86-5.57,0-11.14,7.42-14.85,1.86,1.86,0,5.57,0,7.43-1.86s3.71-3.71,3.71-7.43c-1.86-1.86-3.71-1.86-5.57-1.86,0,1.86-1.86,1.86-1.86,3.71-5.57,0-9.28-5.57-16.71-3.71-3.71,0-5.57-3.71-7.43-5.57-1.86-7.43-11.14-13-16.71-18.57-3.71,5.57-5.57,9.28-5.57,14.85,0,3.72,7.42,1.86,9.28,3.72,5.57,1.86-3.71,5.57-3.71,7.42-1.86,0-1.86-1.86,0-3.71S330.48,92.83,328.62,91Z"/><path class="cls-1" d="M53.84,13C37.13,7.43,20.42,3.71,0,0,7.85,24.66,41.39,43.22,71.66,54.88A93.89,93.89,0,0,1,86.79,42.11a122.25,122.25,0,0,1,31.89-15.3c-6.87-1.65-14.09-3.3-20.27-4.53C79.84,18.57,68.7,16.71,53.84,13Z"/><path class="cls-1" d="M289.64,174.52c9.28-16.71,22.28-22.28,37.13-22.28-20.43-14.85-29.71-26-29.71-50.13l-3.71-3.71c-1.86-16.71-5.57-35.27-20.42-46.42a138.32,138.32,0,0,0-23.77-6.16c18.56,14.43,28.7,32.95,28.7,52.69a10,10,0,0,1-.37,2.56,12.55,12.55,0,0,1,4,6.85c3.47-2.34,7.14-4,8.13-4a65,65,0,0,0-5.88,10,12.53,12.53,0,0,1,1.47,17.79,15.9,15.9,0,0,1,2.37,8.38V142a16,16,0,0,1-10.52,15,16,16,0,0,1,.79,5v.37a16,16,0,0,1-16,16H232l-7.3,7.3s16.71,9.28,27.85,13C265.5,183.81,274.78,178.24,289.64,174.52Z"/><path class="cls-1" d="M399.18,462.3c3.4,2.47,8.4,7.42,14.36,13.94h38.69c-13.54-14.63-25.53-30.35-34.48-47.36-1.86,1.86-3.71,0-5.57-1.86-9.28-5.57-5.57-18.57-11.14-27.85-1.86,0-3.71-1.86-5.57-1.86-3.71,0-3.71,5.57-5.57,9.28a125.06,125.06,0,0,0,1.86,18.57c3.71,11.14-18.56-9.28-24.13-14.85,0,5.57,3.71,14.85,5.57,20.42-1.86,1.86-3.71,0-7.43,0-11.14-1.86-18.56-22.28-24.13-24.13s-5.57,5.57-13,1.86c-3.71-5.57-3.71-7.43-1.86-13,5.57-3.71,5.57-11.14,0-9.28-3.71,1.86-5.57,3.71-16.71-1.86-7.43,1.86-13,5.57-5.57,27.85,7.43,11.14,14.85,20.42,22.28,31.56l21.67,32.51h60.73Z"/><path class="cls-1" d="M480.86,458.58c-24.14-1.86-48.27-14.85-33.42-29.7-5.57-1.86-9.28-3.71-11.14-9.28s3.71-9.28,3.71-13c-3.71,1.86-13,7.43-14.85,14.85-3.71,9.28,18.56,31.56,24.14,39l17.38,15.8h49.58V464.55C505.7,459.6,494.94,455.77,480.86,458.58Z"/><path class="cls-1" d="M402.89,161.53s-18.56,24.14-31.56,31.56c-13,5.57-24.13,7.43-29.7,5.57,14.85-3.71,18.57-3.71,29.7-14.85-13,5.57-18.56,5.57-27.85,5.57s-11.14-11.14-11.14-7.43c-1.86,7.43-7.43,14.85-7.43,14.85-3.71,11.14-18.57,20.42-9.28,33.42,3.71,7.43,11.14,9.28,18.56,9.28,0,1.86-3.71,3.71-1.86,5.57,5.57,1.86,14.85-7.43,63.13,0,27.85-13-3.71-68.69,18.57-89.12C415.88,154.1,406.6,157.81,402.89,161.53Zm-22.28,78c-11.14,1.86-13,0-20.42-1.86s-11.14-7.43-11.14-13c0,0,7.43,11.14,24.14,11.14,13,0,16.71-3.71,20.42-7.43C393.61,228.37,391.75,239.51,380.61,239.51Z"/><rect class="cls-1" x="61.5" y="154.49" width="207.86" height="15.37" rx="7.5" ry="7.5"/><path class="cls-1" d="M165.43,28.25c-57.28,0-103.89,31.49-103.93,70.21a3.41,3.41,0,0,0,.83,1.77,4.61,4.61,0,0,0,2.16,1.24H266.37a4.62,4.62,0,0,0,2.16-1.24,3.36,3.36,0,0,0,.83-1.79C269.36,59.77,222.74,28.25,165.43,28.25Zm-81,51h-3a2,2,0,0,1,0-4h3a2,2,0,0,1,0,4Zm29.67,11.67h-9.83a2,2,0,0,1,0-4h9.83a2,2,0,0,1,0,4ZM118,59h-6.17a2,2,0,0,1,0-4H118a2,2,0,0,1,0,4Zm20.42,9.42a2,2,0,0,1,2-2H153a2,2,0,0,1,0,4H140.43A2,2,0,0,1,138.43,68.41Zm17.66,23.83h-6.17a2,2,0,0,1,0-4h6.17a2,2,0,0,1,0,4Zm2-49.75h-3a2,2,0,0,1,0-4h3a2,2,0,0,1,0,4Zm30.33,42.58h-3a2,2,0,0,1,0-4h3a2,2,0,0,1,0,4ZM208,56.74H197.1a2,2,0,0,1,0-4H208a2,2,0,0,1,0,4Zm21.17,34.17h-9.83a2,2,0,0,1,0-4h9.83a2,2,0,0,1,0,4Zm16.17-21.5h-6.17a2,2,0,0,1,0-4h6.17a2,2,0,0,1,0,4Z"/><path class="cls-1" d="M279.09,140.16a7.51,7.51,0,0,0-7.5-7.5H176.08l-62.23,15-48-15H59.26a7.51,7.51,0,0,0-7.5,7.5V142a7.51,7.51,0,0,0,7.5,7.5H271.59a7.51,7.51,0,0,0,7.5-7.5Z"/><polygon class="cls-1" points="154.75 132.66 82.57 132.66 114.02 142.49 154.75 132.66"/><path class="cls-1" d="M61.63,114.57h207.6a4,4,0,1,0,0-8.1H61.63a4,4,0,0,0,0,8.1Z"/><path class="cls-1" d="M56.47,127.66H275.71a4,4,0,0,0,0-8.1H56.47a4,4,0,1,0,0,8.1Z"/></svg>